<svg width="1593" height="595" viewBox="0 0 1593 595" fill="none" xmlns="http://www.w3.org/2000/svg">
<path fill-rule="evenodd" clip-rule="evenodd" d="M2.55958 308.538C-3.72075 348.017 1.60801 372.429 17.9749 400.275C40.8125 439.372 93.5292 460.351 143.962 460.351C182.596 460.351 223.894 449.29 256.818 428.883C273.185 418.774 285.365 409.811 297.925 395.125C322.666 365.754 329.137 330.09 322.856 296.523C313.341 245.219 316.195 243.502 402.978 231.487C415.729 229.771 496.041 229.58 478.723 206.884C465.21 189.147 443.705 178.467 423.722 178.658C415.729 178.658 346.265 211.08 288.981 216.611C239.309 221.379 196.298 211.461 190.398 214.322C144.343 236.255 278.323 258.76 267.095 330.852C266.524 333.904 266.143 336.955 265.572 340.007C259.101 380.821 204.291 406.187 164.326 406.187C109.706 406.187 79.0654 377.77 71.6432 338.1C64.221 298.239 79.446 247.126 116.176 201.735C120.554 196.395 123.789 192.389 128.356 187.431C236.074 92.2613 364.725 68.8027 436.283 74.715C438.186 53.5451 413.636 9.29795 390.988 2.62274C368.341 -4.05247 332.182 3.38562 310.486 9.67939C240.451 29.705 178.599 66.3233 121.886 116.483C107.612 129.07 83.4426 154.245 71.8335 168.549C56.0375 188.194 43.2865 206.503 30.3453 229.771C19.4974 249.796 6.74646 280.311 2.36927 308.347H2.55958V308.538ZM349.119 351.259C354.829 316.358 382.424 283.744 415.919 266.198C450.176 248.27 492.806 238.162 531.82 238.162C554.657 238.162 592.72 237.399 609.087 248.461C616.128 253.229 619.554 257.997 623.551 265.435C650.765 318.265 557.512 384.826 516.214 408.666C451.317 446.238 381.473 460.924 357.874 420.3C343.22 395.125 344.362 380.058 349.119 351.259ZM433.428 304.724C461.785 290.038 603.948 258.188 566.266 312.925C528.204 365.373 461.975 388.259 445.418 392.074C399.552 402.563 388.895 393.218 395.746 351.259C398.791 332.187 415.539 314.069 433.618 304.724H433.428ZM741.545 138.034C736.216 128.307 724.226 110.952 734.884 94.9314C742.496 83.2974 762.669 74.3336 778.085 70.9006C846.788 55.8337 1083.16 52.0193 966.495 147.761C932.619 175.606 888.276 186.286 847.359 192.771C843.172 193.534 838.414 193.724 834.037 194.678C848.31 163.209 862.774 134.41 867.342 105.23C867.912 101.034 860.681 101.797 856.303 101.225C850.404 100.462 833.847 101.416 827.756 103.132C823.189 104.467 825.663 102.179 821.857 114.385C816.528 131.931 809.677 147.952 801.113 162.446C793.31 175.606 782.843 189.529 770.663 199.637C758.673 209.364 743.258 220.425 727.652 223.858C727.842 226.338 729.365 228.436 730.316 230.724C731.458 233.204 732.029 234.729 732.981 237.399C743.067 265.054 742.496 288.894 738.69 313.115C734.884 337.146 728.033 361.749 725.749 390.739C725.558 394.362 726.129 393.981 725.558 398.367C734.884 393.027 750.299 358.507 766.666 325.512C783.033 292.518 800.732 260.667 814.625 260.667C859.919 260.667 907.688 264.1 899.885 312.543C895.127 341.914 875.144 364.801 853.449 377.388C850.594 379.105 848.501 380.249 845.646 381.965C840.127 385.208 834.417 387.306 828.708 389.976C817.099 394.934 804.348 398.367 791.787 401.991C768.188 408.857 732.79 415.341 709.762 416.295C703.672 416.486 694.157 417.439 688.447 418.012C676.648 419.156 646.579 413.244 635.731 432.697C635.35 433.841 634.97 434.986 634.97 436.13C637.824 437.465 682.738 438.991 690.351 438.991C699.676 438.8 709.192 438.419 718.517 438.037C727.271 438.037 738.119 436.511 746.683 436.13C780.94 434.795 838.985 422.97 871.338 411.718C908.83 398.367 940.612 382.347 966.114 352.785C986.858 328.564 996.754 291.183 983.623 265.817C978.294 255.709 972.965 249.796 964.021 242.549C956.027 236.064 945.56 230.915 935.093 227.101C927.29 224.24 908.069 218.518 897.792 218.518C897.792 218.137 897.792 217.946 897.792 217.565C918.726 217.565 956.408 203.833 976.581 193.343C991.616 185.524 1005.89 176.941 1018.83 166.07C1051.75 138.988 1091.53 98.1736 1072.12 59.076C1035.77 -13.7792 805.49 17.6896 744.59 42.674C670.177 73.38 684.261 100.272 726.7 129.642C729.936 131.931 738.309 137.653 741.925 138.606L741.545 138.034ZM1429.72 433.651C1471.2 433.651 1541.43 415.914 1579.3 392.074C1591.67 384.254 1599.67 373.955 1585.39 370.331C1545.43 394.553 1460.55 403.898 1422.1 395.316C1407.07 391.883 1394.7 383.11 1393.56 366.899C1399.27 366.899 1400.03 367.852 1404.98 367.852C1413.73 367.852 1432 364.801 1440.56 363.275C1462.45 359.079 1492.9 342.105 1510.22 324.94C1539.72 295.569 1547.14 247.889 1512.31 235.111C1457.12 214.704 1365.77 270.394 1345.41 322.842C1339.51 337.909 1334.75 355.455 1336.08 371.285C1339.32 418.202 1385.75 433.841 1430.29 433.841L1429.72 433.651ZM1477.87 260.286C1492.52 259.332 1500.32 262.956 1503.56 268.868C1506.79 274.59 1505.27 282.6 1496.33 291.755C1487.19 300.909 1470.63 311.399 1454.84 319.028C1439.04 326.657 1424.39 331.234 1413.92 330.09C1403.64 328.945 1397.55 321.698 1399.46 311.017C1403.26 288.894 1458.07 261.43 1478.06 260.286H1477.87ZM1086.96 376.625C1089.25 361.94 1100.67 338.863 1113.8 315.785C1126.93 292.708 1142.53 269.822 1153.19 255.709C1166.7 237.781 1184.4 215.467 1191.06 243.884C1196.58 267.152 1182.5 297.476 1170.13 316.548C1163.66 326.275 1138.16 366.708 1148.05 380.058C1158.9 394.553 1196.77 365.563 1205.15 359.46C1209.14 356.6 1211.43 354.12 1214.66 350.687C1216.57 348.78 1217.71 348.017 1219.8 346.11C1249.3 318.074 1257.48 290.992 1270.61 275.925C1281.84 263.337 1300.3 251.894 1317.43 251.894C1308.49 274.59 1302.02 294.425 1299.16 314.069C1296.31 333.713 1297.07 353.357 1302.59 375.672C1309.44 403.517 1321.24 419.537 1336.27 430.027C1303.35 432.888 1288.5 410.383 1278.42 402.563C1268.52 394.934 1256.15 378.342 1255.2 365.754C1251.58 370.331 1248.16 374.909 1244.73 379.486C1220.18 412.099 1181.55 432.697 1140.63 432.697C1121.41 432.697 1104.66 434.223 1093.05 418.012C1084.49 406.378 1084.11 393.409 1086.96 376.816V376.625ZM1039 430.79C996.183 418.393 1011.6 339.816 1040.72 258.569C1069.83 177.323 1113.23 93.4056 1126.55 70.1377C1129.97 64.2254 1133.4 60.2203 1137.4 54.3079C1140.06 49.9214 1145.58 42.2926 1149.39 40.0039C1157.57 73.38 1133.21 152.147 1105.23 232.059C1077.26 311.971 1045.47 393.027 1039.19 430.79H1039ZM405.833 48.2049C398.22 43.4369 390.417 38.6689 376.715 37.1431C303.064 28.9421 203.72 81.5809 137.682 122.967C184.879 89.019 340.936 -10.7277 389.846 24.3649C396.698 29.1329 401.265 38.8596 405.833 48.3956V48.2049ZM909.401 28.1793C982.291 24.3649 1058.23 31.6122 1065.84 79.483C1019.78 34.6638 973.536 35.9988 909.401 28.1793ZM609.277 264.482C615.177 295.378 604.139 311.971 580.54 340.961C602.236 331.425 626.786 297.667 609.277 264.482Z" fill="white"/>
<path fill-rule="evenodd" clip-rule="evenodd" d="M755.057 520.238L732.029 595H710.904L733.932 520.238H692.254L697.202 504.026H801.684L796.736 520.238H754.867H755.057ZM862.013 525.578C864.487 517.377 867.913 511.655 871.909 508.604C875.906 505.552 882.376 504.026 891.131 504.026H957.931C966.685 504.026 972.204 505.552 974.488 508.604C976.581 511.655 976.391 517.186 973.917 525.578L959.072 573.449C956.598 581.84 953.173 587.371 949.176 590.423C945.18 593.474 938.709 595 929.955 595H863.155C854.4 595 848.881 593.474 846.788 590.423C844.694 587.371 844.885 581.84 847.359 573.449L862.203 525.578H862.013ZM866.961 577.835H936.616L954.315 520.238H884.66L866.961 577.835ZM1088.68 504.026L1066.03 577.835H1126.17L1148.81 504.026H1169.94L1148.62 573.449C1146.15 581.65 1142.72 587.371 1138.73 590.423C1134.73 593.474 1128.26 595 1119.51 595H1062.22C1053.47 595 1047.95 593.474 1045.86 590.423C1043.57 587.371 1043.76 581.84 1046.43 573.449L1067.74 504.026H1088.87H1088.68ZM1322.38 519.665H1254.25L1259.01 504.026H1336.46C1343.69 504.026 1348.45 505.361 1350.93 508.222C1353.4 510.892 1353.59 515.47 1351.69 521.573L1345.03 542.933C1343.12 549.036 1340.08 553.614 1336.08 556.284C1332.09 559.145 1326.38 560.48 1319.14 560.48H1307.35L1338.75 594.809H1308.49L1282.6 560.48H1262.62L1251.96 594.809H1231.22L1246.64 545.031H1314.77C1318.38 545.031 1321.05 544.459 1322.76 543.505C1324.47 542.361 1325.62 540.454 1326.57 537.784L1329.99 526.913C1330.75 524.243 1330.75 522.336 1329.61 521.382C1328.66 520.238 1326.19 519.856 1322.57 519.856L1322.38 519.665ZM1457.12 519.856L1451.03 539.31H1507.55C1516.5 539.31 1522.02 540.835 1524.11 543.887C1526.4 546.938 1526.21 552.66 1523.54 560.861L1519.73 573.449C1517.26 581.65 1513.83 587.371 1509.84 590.423C1505.84 593.474 1499.37 595 1490.43 595H1434.47C1425.53 595 1420.01 593.474 1417.92 590.423C1415.63 587.371 1415.82 581.65 1418.49 573.449L1419.25 570.969L1439.04 567.155L1435.81 577.835H1499.94L1506.41 557.047H1449.89C1441.14 557.047 1435.62 555.521 1433.33 552.469C1431.24 549.418 1431.43 543.887 1433.9 535.495L1436.95 525.387C1439.42 517.186 1442.85 511.464 1446.84 508.413C1450.84 505.361 1457.31 503.836 1466.07 503.836H1517.64C1526.2 503.836 1531.53 505.361 1534.01 508.222C1536.29 511.083 1536.29 516.233 1534.01 523.861L1533.44 525.769L1513.45 530.155L1516.69 519.856H1457.12Z" fill="white"/>
</svg>
