<svg width="17" height="17" viewBox="0 0 17 17" fill="none" xmlns="http://www.w3.org/2000/svg">
<path d="M16.9998 8.55758C16.9687 13.1745 13.2027 16.9538 8.58678 16.9995C7.87263 17.0071 7.16036 16.9247 6.46677 16.7543C6.42505 16.7439 6.38579 16.7254 6.35124 16.6998C6.31669 16.6742 6.28753 16.642 6.26544 16.6051C6.24335 16.5682 6.22875 16.5273 6.22249 16.4847C6.21623 16.4422 6.21842 16.3988 6.22895 16.3571L6.93507 13.5333C7.6238 13.8785 8.38359 14.0582 9.15397 14.058C12.1779 14.058 14.6052 11.3242 14.369 8.06229C14.3049 7.21567 14.0584 6.39293 13.6464 5.65057C13.2344 4.9082 12.6666 4.26379 11.982 3.76158C11.2975 3.25936 10.5124 2.91124 9.68056 2.7411C8.84877 2.57096 7.99001 2.58284 7.16324 2.77592C6.33647 2.969 5.56127 3.33871 4.89086 3.85967C4.22045 4.38063 3.67071 5.0405 3.27938 5.79397C2.88805 6.54745 2.66439 7.37669 2.62377 8.22476C2.58314 9.07284 2.72651 9.91966 3.04403 10.7071C3.07702 10.7892 3.12634 10.8638 3.18901 10.9264C3.25168 10.9889 3.32639 11.038 3.40862 11.0708C3.49084 11.1036 3.57887 11.1193 3.66736 11.1171C3.75585 11.1148 3.84296 11.0946 3.92342 11.0577C4.07686 10.9833 4.19613 10.8532 4.25688 10.6939C4.31763 10.5345 4.31529 10.358 4.25033 10.2004C4.00596 9.58753 3.89697 8.92912 3.93082 8.27023C3.96467 7.61134 4.14056 6.96756 4.44644 6.383C4.75232 5.79844 5.18096 5.28693 5.70298 4.8835C6.22501 4.48008 6.82808 4.19429 7.47086 4.04572C8.11365 3.89714 8.78096 3.8893 9.42706 4.02272C10.0732 4.15614 10.6828 4.42767 11.2141 4.8187C11.7455 5.20974 12.1861 5.71104 12.5056 6.28824C12.8251 6.86544 13.0161 7.50491 13.0654 8.16282C13.2403 10.6581 11.4203 12.7504 9.15397 12.7504C8.48746 12.75 7.83365 12.5681 7.2628 12.224L8.48054 7.35124C8.51927 7.1842 8.49083 7.00863 8.40136 6.86236C8.31188 6.71609 8.16853 6.61082 8.00219 6.56923C7.83585 6.52764 7.65982 6.55307 7.51205 6.64002C7.36427 6.72698 7.25656 6.86851 7.21213 7.03412L5.01693 15.8161C5.00501 15.8639 4.98243 15.9084 4.95089 15.9463C4.91934 15.9841 4.87965 16.0144 4.83477 16.0347C4.78989 16.0551 4.74098 16.065 4.69172 16.0638C4.64245 16.0626 4.5941 16.0503 4.55027 16.0278C3.1637 15.3001 2.00508 14.2036 1.20223 12.8592C0.399377 11.5148 -0.0164938 9.97466 0.000500758 8.40883C0.0495372 3.8025 3.81472 0.0428947 8.41843 0.000394856C9.5463 -0.010477 10.6651 0.203257 11.7095 0.62914C12.754 1.05502 13.7032 1.68454 14.5019 2.48099C15.3006 3.27745 15.9328 4.22492 16.3617 5.26818C16.7905 6.31144 17.0075 7.42963 16.9998 8.55758Z" fill="white"/>
</svg>
