<svg width="16" height="17" viewBox="0 0 16 17" fill="none" xmlns="http://www.w3.org/2000/svg">
<path d="M16 5.03704V8.18518C16 8.35217 15.9352 8.51232 15.8198 8.6304C15.7044 8.74848 15.5478 8.81481 15.3846 8.81481C14.0991 8.81787 12.832 8.50161 11.6923 7.89319V11.0185C11.6923 12.6049 11.0764 14.1263 9.98001 15.2481C8.88364 16.3698 7.39665 17 5.84615 17C4.29566 17 2.80867 16.3698 1.7123 15.2481C0.615932 14.1263 0 12.6049 0 11.0185C0 8.11435 2.07 5.54704 4.81538 5.04648C4.90395 5.03038 4.99489 5.03433 5.0818 5.05807C5.16871 5.08181 5.24948 5.12475 5.31842 5.18388C5.38735 5.24301 5.44278 5.31688 5.4808 5.40029C5.51882 5.4837 5.5385 5.57463 5.53846 5.66667V9.02653C5.5385 9.14569 5.50549 9.26242 5.44326 9.36314C5.38103 9.46387 5.29214 9.54446 5.18692 9.59556C4.93818 9.71625 4.72565 9.90302 4.5715 10.1364C4.41735 10.3698 4.32722 10.6412 4.31052 10.9223C4.29383 11.2035 4.35117 11.4841 4.47657 11.7348C4.60197 11.9856 4.79084 12.1973 5.02346 12.3479C5.25609 12.4985 5.52396 12.5825 5.79912 12.5911C6.07429 12.5997 6.34668 12.5327 6.58786 12.3969C6.82905 12.2611 7.03021 12.0615 7.17035 11.8191C7.3105 11.5767 7.38449 11.3002 7.38462 11.0185V0.62963C7.38462 0.462641 7.44945 0.302493 7.56486 0.184414C7.68026 0.0663358 7.83679 0 8 0H11.0769C11.2401 0 11.3967 0.0663358 11.5121 0.184414C11.6275 0.302493 11.6923 0.462641 11.6923 0.62963C11.6933 1.63124 12.0827 2.59153 12.7749 3.29977C13.4671 4.00802 14.4057 4.40637 15.3846 4.40741C15.5478 4.40741 15.7044 4.47374 15.8198 4.59182C15.9352 4.7099 16 4.87005 16 5.03704Z" fill="white"/>
</svg>
