<svg width="22" height="17" viewBox="0 0 22 17" fill="none" xmlns="http://www.w3.org/2000/svg">
<path d="M21.4431 2.85137C21.3506 2.49528 21.1733 2.16594 20.9258 1.89051C20.6784 1.61508 20.3679 1.40146 20.02 1.26728C16.6532 -0.0115873 11.2946 3.67425e-06 11 3.67425e-06C10.7054 3.67425e-06 5.34679 -0.0115873 1.98 1.26728C1.63209 1.40146 1.32161 1.61508 1.07416 1.89051C0.826724 2.16594 0.649418 2.49528 0.556875 2.85137C0.3025 3.81534 0 5.57716 0 8.5C0 11.4228 0.3025 13.1847 0.556875 14.1486C0.64928 14.5049 0.826523 14.8344 1.07397 15.11C1.32142 15.3856 1.63198 15.5994 1.98 15.7337C5.20536 16.9575 10.2536 17 10.9352 17H11.0648C11.7464 17 16.7976 16.9575 20.02 15.7337C20.368 15.5994 20.6786 15.3856 20.926 15.11C21.1735 14.8344 21.3507 14.5049 21.4431 14.1486C21.6975 13.1827 22 11.4228 22 8.5C22 5.57716 21.6975 3.81534 21.4431 2.85137ZM14.2008 9.12978L10.2722 11.8343C10.1547 11.9153 10.0169 11.9631 9.87373 11.9725C9.73056 11.9818 9.58751 11.9525 9.4601 11.8876C9.33269 11.8227 9.22577 11.7247 9.15096 11.6043C9.07615 11.4839 9.03629 11.3457 9.03571 11.2045V5.79546C9.03575 5.6541 9.07522 5.51546 9.14982 5.39463C9.22442 5.2738 9.33129 5.17541 9.4588 5.11017C9.58631 5.04493 9.72957 5.01534 9.873 5.02461C10.0164 5.03389 10.1545 5.08168 10.2722 5.16279L14.2008 7.86733C14.3041 7.9386 14.3885 8.03331 14.4467 8.14344C14.505 8.25356 14.5354 8.37587 14.5354 8.5C14.5354 8.62414 14.505 8.74644 14.4467 8.85657C14.3885 8.96669 14.3041 9.0614 14.2008 9.13267V9.12978Z" fill="white"/>
</svg>
